<?xml version="1.0" encoding="utf-8"?>
<!-- Generator: Adobe Illustrator 20.1.0, SVG Export Plug-In . SVG Version: 6.00 Build 0)  -->
<svg version="1.1" id="Shape_27_1_" xmlns="http://www.w3.org/2000/svg" xmlns:xlink="http://www.w3.org/1999/xlink" x="0px"
	 y="0px" viewBox="0 0 289 335" style="enable-background:new 0 0 289 335;" xml:space="preserve">
<style type="text/css">
	.st0{clip-path:url(#SVGID_2_);fill:#1E3D76;}
</style>
<g>
	<defs>
		<rect id="SVGID_1_" width="289" height="335"/>
	</defs>
	<clipPath id="SVGID_2_">
		<use xlink:href="#SVGID_1_"  style="overflow:visible;"/>
	</clipPath>
	<path class="st0" d="M140,48.4c1.1,0,0.7,0.3,1.6,0.4c0.9,0.1,1.6,0.1,3,0.1c1.3,0,1.1-0.5,1.2-1.2c0.1-0.7-0.5-1.3-1.5-1.4
		c-0.9-0.1-2.4-0.4-2.4-0.4s-2,0.5-2.9,1.4C138.2,48.2,138.9,48.4,140,48.4z M169.7,219.5C169.9,219.6,169.7,219.4,169.7,219.5
		L169.7,219.5z M142.4,194.9c2.3,2,3.5,3.5,4.1,2.2c0.6-1.4-0.7-2-2.5-2.9c-1.7-0.9-8.7-6-7.7-4.3
		C137.9,192.4,140.2,192.9,142.4,194.9z M127.1,159.9c-2,3.6-2.7,6.1-2.2,10s1.9,9.5,2.7,10s-0.3-4.8-0.3-10.9
		C127.2,163.1,128.6,157.3,127.1,159.9z M132.8,197.2c-0.5-0.7-3.7-6.5-1.9-1.3c1.8,5.3,4.6,21.2,5.4,24.2c0.8,3,2.7,1.8,2.8,0.1
		s1.6-4.9,2.1-6.3c0.5-1.4,1-5.1,1.5-6.3s0.6-0.4-1.7,0.2c-2.2,0.5-3.1,1-3.8-0.3c-0.7-1.4-1.1-1.5-2.1-4.5
		C134.3,200,133.3,197.8,132.8,197.2z M107.2,172c-0.8,2.1-2.5,5.3-2.5,7.9c0,2.6-0.3,8-0.2,8.9c0.2,1,0.2,3.3,0.2,4.2
		s2.5-0.5,2.5-2.6v-6.9c0-2.9,0.2-3.9,0.2-6.1C107.4,175.2,107.9,169.9,107.2,172z M103.9,169.8c1.7-3.2,9.8-10.8,9.8-10.8
		s-2.3,0.6-7.7,5.1C100.7,168.6,102.2,173,103.9,169.8z M158.5,274.9c-0.8,1.2-5.2,8.3-6.2,10.6c-1,2.3-4.4,8.3-4.9,9.6
		c-0.5,1.4-1.5,4.8-2,7.3s-2.5,7.5-3.2,9.7s-1.2,3.7-0.5,3.7s2.9-3.2,3.6-5.8c0.7-2.6,4.1-10.5,4.2-11.8c0.2-1.4,3-8.6,3.5-9.6
		s2.6-5.1,3.5-6.3c0.9-1.2,2.7-2.9,3.6-4.4C160.9,276.5,159.3,273.7,158.5,274.9z M190.4,94.8L190.4,94.8
		C190.7,94.7,190.4,94.8,190.4,94.8z M194.5,120.2c1.5,0.1,0.8,0,1-0.9c0.3-0.8-0.1-1.6-0.8-2.1c-0.6-0.5-2.2-0.5-2.5,0.7
		C192,119.2,193,120,194.5,120.2z M148,154.7l12.5,0.6l-0.2-25L148,154.7z M161.8,155.5l11.7-0.5l-11.7-24.1V155.5z M159.6,127.6
		c1.1,0.8,2.6,0.8,2.6,0.8s0.8-4.4-1.1-3.2S158.5,126.8,159.6,127.6z M191,97.2c0-1.6-0.4-2.2-0.5-2.4c-0.1,0.1-0.3,0.2-0.7,0.5
		c-1.3,0.9-1.6,1.7-0.5,2C190.3,97.6,191,99.1,191,97.2z M241.2,94.3c-4-5.2-13.6-15-21.4-21.9c-7.8-6.9-10-4.6-15.5-3.8
		c-5.5,0.8-13.6,2.7-17.5,4.8c-3.9,2.1-3.8,3.8-7.8,2.5s-8.7-4.1-10.9-5.2c-2.3-1.2-1-2.7-2.2-5.6c-1.1-2.9-1.1-1.6-1.6-3.4
		c-0.4-1.8-0.7-4.1-1.4-5.7c-0.7-1.6-3-2.7-2.6-4.3s0.4-8.1,0.1-9.3c-0.2-1.1,0.7-3.5,1.8-4.4s-0.9-5.1,0-6s0.7-5.4,0.7-7.4
		s-1.8-3.6-2.4-5c-0.6-1.3-0.7-4.8-2.5-7.5s-5.9-3.3-8.8-4.8s-5.8-3.5-10.7-1.5c-5,2-10.7,6.3-12.9,8.9c-2.2,2.7-3.5,4.5-3.5,7.3
		s-0.7,2.3-1.4,3.9c-0.7,1.6-0.4,4-0.2,5.3c0.2,1.4,0.5,3.4,0.5,4.3c0,0.9-0.2,1.6-0.2,4s0.5,2.7,1.3,5.1c0.8,2.4-0.7,1.6-2.2,3.5
		s-2.6,4.7-2.6,4.7s-0.2,0.9,0.9,3.1c1.1,2.2,1.6,2,3.3,3.6c1.8,1.6-1.3,2.5-3.4,4.9c-2,2.4-2.2-0.5-2.8,3.4
		c-0.6,3.8,0.4,3.2,2.5,5.2c2.1,2.1,1.1,1.8-2.6,4.4s-4.6,2.4-8.2,5.1c-1.2,0.9-2.1,1.5-2.9,1.9c-3.8,2-11.1,7-13.3,17
		c-3,13.8-9.7,48.8-11,52.5s-9.1,23.7-9.8,25.2c-0.7,1.6-4.7-0.5-5.6,3.7s-0.3,5.8-1.1,7c-1,1.5-1.6,6.4-1.6,6.4s-0.4,3-0.1,5.4
		c0.2,2.4,0,14.6-0.6,20.2c-0.7,5.5-0.2,13.9-0.2,13.9s-3.9,2.7-2.8,3.9c1.1,1.3,0.6,1.5,3.8,1.3c3.1-0.2,4.2-1.5,5.1,0.4
		c0.9,2,3.4,3.8,3.4,3.8l1.4-2.5l1.7,1.5l40.3,133c0,4,0,7.1,0,7.1s89.1,2.3,89.1,1.4s-3.7-2.7-6.4-4.8c-2.7-2.1-2.7-3.6-5.5-8
		s-4.5-8.6-6.9-10.5s-0.9-20.5-0.9-28.5s2.9-8.3,3.6-14c0.7-5.7-0.5-4.5-2-7.9c-1.6-3.4,2-14.7,3.1-18.5c1.1-3.9,1.1-13.2,0.2-18.9
		c-0.9-5.7-0.5-13,2.9-16.5c3.3-3.5,2.8-7.3,5.5-7.9c2.7-0.7,4-11.6,3.8-15s2.1-7.4,2.1-13.2s-0.4-28,0.3-33.9c0.7-5.9-2-7.8-2-13
		s0.2-14.1,0.2-17.7c0-3.6-2.2-3.6-2.7-4.7c-0.5-1.1,0.9-13.1,1.4-16.5c0.4-3.4-1.3-7-1.1-12c0.2-5-0.2-6.8,0.5-6.6
		c5.4,1,18.9-0.2,18.9-0.2l0.7,2.9c0,0,0,1.1,0.9,2s0.9,2.9-0.7,6.5c-1.6,3.6-15.6,29.5-15.6,29.5s3.5,7.8,16.4,7.8
		s17.8-7.8,17.8-7.8s-8.1-19.1-11.6-25.4c-3.5-6.3-2.5-8.1-2.5-12.8c0-4.7,2.2-2.4,6.5-0.9s7.2,2.7,10.2,1.3c2.9-1.4,6.1-1.3,9-3.6
		C251.6,114.7,245.2,99.5,241.2,94.3z M121.9,25.7c0.3-0.7,0.9-0.9,1.3-2.8s0.5-1.3,0.5-1.3s1.1,0,1.9-0.7s0.1-1.8,0-2.6
		c-0.1-0.8,0.5,0,2.3,0c1.7,0,0.4-0.8-0.9-2.7c-1.3-1.9,1.6-2.6,3.7-4.1s8.1-3.5,12.2-4.4c4.1-0.9,11.1,4,12.4,5.4
		c1.4,1.4,0.3,0.5,0.3,2.2c0,1.6-0.5,0.7-1.8,0.5c-1.2-0.1-1.5,0.1-0.8,1.4c0.7,1.2,0.9,0.3,2.7,0.5c1.7,0.3,1.3,0.8,2.9,1.5
		c1.6,0.7,1.2,2.6,1.9,4.7c0.7,2,1.8,1.3,1.5,5.1c-0.4,3.8-0.7,4.6-2.1,3.5c-1.3-1.1-1.9-4.1-3-5.9s-1.9-2.7-3.2-3.1s-2.8,0-5.5-0.8
		s-1.8,0.5-0.4,1.4c1.4,0.8,2.5,1.1,3,1.1c0,0,2,1.1,3.2,2.4s2.1,4.3,2.6,5.4c0.5,1.1,1.8,1-1,2.1c-2.8,1.2-3.6,0-3.6,0
		s-4.2,0.4-5.4,0.4s-3.5-0.9-3.5-0.9s-4.8,0.4-5.9,0.4s-1.7,0-3.6-0.1c-1.9-0.1-4.8-0.5-6.3-0.5s-0.4-0.4-0.4-1.5
		c0-1.1,2.5-4.3,3.3-5.3c0.8-1.1,2.7-2,4.7-2.8s2.4-1.3,1.3-2.5c-1.1-1.2-1.9,0-3.4,0s-3.2,1.1-4.2,3.1c-0.9,2-1.7,3.2-3.3,4.2
		c-1.6,1-1.2-0.5-2.4-0.9c-1.2-0.4-1.1,0.4-1.6-0.1C120.9,27.2,121.6,26.3,121.9,25.7z M130.7,38.3l0.8-2c0,0,0.5-1.2,1.3-1.8
		s0.9,0.1,1.6,0.8c0.7,0.7,0,0.7,0.1,1.6c0.1,0.9,1.1,0.9,1.1,0.9l0.8-2.5c0,0,2.2-0.4,3.3-0.3c1.1,0.1,3.2,0.7,4.9,1
		c1.8,0.3,3,0,4.4,0s1.6-0.1,3.4,0c1.8,0.1,1.4,1.6,1.9,2.9c0.5,1.2,1.3,1.2,1.3,1.2s-3.8,0.3-4.7,0.3c-1,0-1.9-0.1-2.8-0.1
		c-0.9,0-2-0.4-2.9-0.8c-0.9-0.4-2.9-0.3-3.7,0.1s-1.8,0.3-1.8,0.3s-1.6-0.4-2.5-0.9s-2,0.9-3.1,1.1c-1.1,0.1-1.6-0.7-1.6-0.7
		s-2.4,0.2-3,0.6c-0.6,0.4-0.8,0.1-1.9,0.1s-1.2-0.4-2.3-0.9c-1.1-0.5-0.3-0.8-0.1-1.6c0.1-0.8,1.2-1.6,2.5-1.9c1.2-0.3,1.6,1,1.6,1
		l-0.2,1.4L130.7,38.3z M120.2,56.6c-1.3-1.2,0.1-0.8,0.1-2.4c0-1.6-1.5-0.3-1.3-1.4c0.1-1.1-0.1,0.3-0.1-0.4s1.1-1.9,1.6-2.8
		c0.5-1,2.2-2.8,2.7-3.1s0.8,0,2-0.1s0.4-0.3,0.7-0.8c0.3-0.5-1.1-2.3-1.6-2.5c-0.5-0.3-1.6-0.5-1.6-0.5s-1.3-2.2-1.3-2.7
		s0.4-1.7,0.7-3.1c0.3-1.3,0-2.4-0.5-4.6c-0.5-2.2,0.1-2.7,0.1-2.7l1.9,0.9c0,0,0.4,1.6,1.4,3c0.7,1.1,1.1,1,1.3,0.9l-1.4,1.2
		c0,0-1.4,0.4-1,1.8c0.4,1.4,0,0.4,0.1,2.2s1.5,0.8,2.3,1.3s0.4,0.7,1.1,1.4c0.7,0.7,1.3,0.3,2.7-1.1c1.3-1.3,0.6,0.3,3.4,0.4
		c2.7,0.1,2.8,0.3,3.8,0.3s1.6,0.7,1.6,0.7s0.1,1.4,0.8,2c0.6,0.7,1.1-1,1.1-1s1.6-2.4,2.2-3.1s1.4,0.5,1.4,0.5s0.6,2,1.3,2.9
		c0.7,0.8,1.3,0.1,1.3,0.1s-0.3-1.3-0.4-2.1c-0.1-0.8,1.1-0.7,1.1-0.7s1.6,0.8,2.6,0.8s1.7-0.3,1.7-0.3s1.2-0.5,3.5-0.4
		s0.4,0,3.3,0.3c0.7,0.1,1,0,1.2,0c0-0.2-0.1-0.4-0.1-0.7c-0.3-0.5-0.9-1.1-1-1.8c-0.1-1.6-0.4-1.5-0.8-2.8
		c-0.4-1.4,1.1-1.8,2.3-1.9c1.2-0.1,1.3,0.4,1.3,1.4c0,0.9-0.5,1.6-1.2,2.8c-0.5,0.9-0.7,1.6-0.6,2.4c0.2,0.3,0.3,0.5,0.1,0.7
		c0,0.1,0,0.3,0.1,0.4c0.4,1.3,0.6,4.5,0.4,5.4c-0.2,0.9-0.4,5.9-0.4,5.9s0.7,2.6,2.1,3.6c1.4,1,1.1,2.7,1.1,2.7s-1.7-0.1-2.4,0.3
		c-0.7,0.4-1.5,1.1-2.6,1.6s-2.5-0.5-2.9-1.3s0.1-2.5,0.1-2.5s0.7-2.2,1-2.9s0.8-1.5,2.4-2.8c1.6-1.3,0.7-1.6,0.5-2.7
		c-0.1-1.1-1.8-1.1-2.8-0.7c-1.1,0.4,0,1.3,0.1,3.1s-0.1,0.4-1.7,1.2c-1.6,0.8-0.7,0.4-1.1,1.6c-0.4,1.2-0.4,2.8-1.4,3
		c-1,0.1-0.8-1.1-2.9-0.9c-2.1,0.1-2.5-0.3-3.2-0.9c-0.7-0.7,0.3-0.8,1.2-2.2s-1.8-0.7-1.8-0.7l-1.5,1.5c0,0-1.9,0.4-2.5,0.3
		c-0.7-0.1-1.9-0.4-1.9-1.9s-0.4-2.1-0.4-2.1s-2.1,0.3-2.5,0.8s0.4,2.1,0.8,2.8c0.4,0.7,0.4,1.2,1.2,2.2s2.2,0.1,2.7,0
		s2.3,0,3.4,0.1c1.1,0.1,0.5,1.1,1.6,1.5s2.6,1,2.5,1.6c-0.1,0.5-1.9,1.6-1.9,1.6s-4,0.8-5.3,0.8h-2.7c-0.5,0-4.2-2.5-4.4-3.7
		c-0.3-1.2,0.8-0.1,1.5-0.7c0.7-0.5-0.8-0.7-2.6-2c-1.9-1.3-1.6-1.9-1.7-3.6c0-1.7,0.4-1.7,0.1-3.1c-0.3-1.3-1.6,1-2.1,2.3
		c-0.5,1.2-1.2,0.9-2.4,0.8c-1.2-0.1,0-1.8-0.7-3.3s-2,0-2.8,0s-0.3,1.9-0.3,3s0.8,0.8,2,1.1s1.5,0.8,2.4,1.6c0.9,0.8,0,1.4,0,2.3
		c0,0.8-0.7,2.3-1.3,2.5c-0.7,0.3-1.2-0.3-2-1c-0.8-0.8-1.6,0-2.5,0.1C121.6,58.5,121.5,57.8,120.2,56.6z M66.4,229.9
		c-0.5,0.7-2,0.6-1.5,2.4c0.5,1.7,1.4,2,1.2,2.7c-0.2,0.7,0.7,3.4-1.2,3.5c-1.9,0.2-3.3,1.8-3.5-0.5c-0.3-2.3,0.7-5.4,0.7-7
		s-0.5-6.7-0.5-6.7s0.8-5,0.8-6.6s0.5-8.8,0.5-9.5v-3.7c0-2-0.1-2.3,1-3.3c1-1,3.4-1.2,2.6-6.6c-0.8-5.5,0-2.4,1.4-2.4
		s2.4,0.7,2.9-0.5s1.5-2.7-0.2-2.9s-2.9,0.5-3.4-0.8s-0.5-2.5-0.5-2.5s-2.1-0.7-0.7-1.8c1.5-1.1,3.2-2.5,4-3s9.7-21.8,9.7-21.8
		c2.5-7.8,5.7-22.5,6.6-28.7c0.9-6.2,7.8-40.1,10.9-36.9c3.1,3.3,2.9,4.1,2.9,4.1s0.1,3.4,0,4.4s-3,1.6-3,1.6s0.2,1.6,1.3,2.3
		c1,0.7,3.2,1,2.2,2.2s-1.3,1.2-2.7,1.7c-1.4,0.5-1.5,1.6-1.5,3.5s0.5,4.6-0.8,5.4s-3.2,3.2-3.2,4.7s0.3,3.4-0.2,4.3
		c-0.5,0.8-1.4,1.2-1.5,2.1c-0.1,1-0.6,5.1-0.3,6.2c0.3,1.1,0.1,1.6-1.4,3.1s-2,2.3-2,4s1.2,2.7,0.2,3.7s-1.8,4.2-2.2,5.9
		c-0.3,1.7-3.4,4.4-0.5,5.2c2.9,0.9,2.9,0.7,3.9-0.6c1-1.4,1-1.4,1-1.4s1.8-0.2,1,3.3s-1.8,4.3-1.8,7.2s-7.9,22.2-12,27.7
		c-4.1,5.4-1.9,3.9-3.3,1.9s-1.4,0.1-1.2,3.3c0.2,3.3-0.9,7.6-1.5,4.4c-0.6-3.2-0.3-4.8-0.8-5.8s-0.9-4.4-2.2-1.8
		c-1.3,2.5-0.6,5.2,0.1,7.4s1.1,3.3,2.6,4.1s2.2,1.9,2.2,1.9s1.5,1.3,1.7,3s0.7,3.4,0,4.5c-0.7,1.2-1.4,1.8-0.8,3.2
		c0.5,1.3,2.6,1.9,2.7,3s1,2.6,1,3.6s0.2,1.9,0.7,2.7s2.8,1.8,2.8,1.8l2.2,2.3l6.5-0.2c0,0,1.7,0.7,3.5-0.3s1.2-2.2,2.5-2.2
		c1.3,0.1,5,0.1,5.1,2.2c0.2,2.2-1,3-3,3.2s-4.2-0.3-6.6-0.5s-2.2-0.2-4.4-0.2c-2.2,0-4.1,0.5-5.1,0s0.9-1.5-2.6-1.9
		c-3.4-0.3-4.3,0.5-5.1-0.8c-0.9-1.4-1-2.7-1-4.1c0-1.4,0.2-5.4,0.2-5.4s-0.5-1.2-1.5-1.9s-1-3.3-1-3.3s-0.7-1.1-1.5-0.5
		c-0.8,0.7-1.2,4.1-1.2,4.1s0.5,1.5,0.5,2.4s-0.8,1.1-1.2,2.4C66.5,227.5,66.9,229.2,66.4,229.9z M135.6,155.5
		c0.1,1.8,4.3,0.7,4.3,0.7s2.9,1,3.7,1.4c0.8,0.3,3.8,0.7,4.4,1.9c0.6,1.2-2,0.8-4.2,1.3s0.1,3.2,2.1,5.1c0.6,0.5,1,0.9,1.2,1.1
		c2.4,1,5.9,2.6,8.2,2.9c3.4,0.5,7.9-0.3,7.9-0.3s-1,2.7-12.5,3.1c2.4,1.6,6,3.3,9.2,5.3c5.3,3.2,0,2.7-0.2,6.9s-1.5,4.1-4.5,10
		c-2.9,5.9-1.9,3.7-3.4,5.4s-3.1,4.7-5,8.2c-1.8,3.5-1,2.5-2.6,8.7c-1.5,6.2-3,5.9-4.4,11c-1.5,5.1-2.5,6.7-4.5,1.2s-2.2-6-5.4-16.7
		c-3.3-10.7-1.5-7.4-2.3-12.4c-0.9-5.1-3-12.3-3.6-18.4c-0.5-6.1-0.9-9.6-1.2-6.6c-0.3,3.1-0.5,4.5,0.4,11.4s1,7,1.2,8
		s1.4,7.3,1.4,8.8s0.8,10.9,1.6,14.4c0.9,3.5,4.3,13.9,5.1,17.6c0.8,3.7,0,6.3-2.6,2.7c-2.6-3.6-2.5-8.3-4.8-14.9
		c-2.3-6.6-1.1-9.9-1.4-17.4s-1.4-3.6-1.4-1.9s0.3,11,0.8,16.9s1.2,9.5,3,15.5s3.5,10.2,4.7,14.5s-1.7-1-3.5-6.1s-2.8-10.1-4.5-14.2
		c-1.7-4.1-1.5-7.9-3.9-16.2s-0.9-11.4-1.8-17.6c-1-6.2-0.3-9.3-1.5-16.5s-2.1,2-0.9,8c1.1,6,1.4,21.6,1.4,24.3s0.2,10.8,0.9,13
		c0.7,2.2,2.7,6.4,3.9,8.8c1.2,2.4,1.6,5.6,2.7,10.4c1.1,4.7,3.4,11.7,3.4,12.7s-1,5.7-1,5.7l-3.1,6.7c0,0-2.4,0.3-3,0.2
		c-0.7-0.2-2.5-1.7-3.2-2.8c-0.7-1.2-2-2.9-3.4-3.6s-2.3-2.1-3.7-3.1c-1.4-1-2.7-1.5-3.2-3.5c-0.5-2,0-1.8-1-3.4
		c-1-1.5-1-2.2-0.7-3.8c0.3-1.7,3.7-2,3.3-4.3c-0.3-2.3-1.9,0.1-4.7,1.6c-2.9,1.5-1.6,0.6-1.6-0.6c0-1.2,0-1.7-0.7-5
		c-0.7-3.4,1-1.3,3.3-5.3c2.3-3.9-2.6-5.8-4.2-8c-1.7-2.2-2.2,0.2-5.8-0.5c-3.7-0.7,0-1.4,1.4-3.2s-0.9-9.2-1.9-16.2
		s4.5-15.4,0.6-12.3c-4.2,3.3-5.6,32.1-5.4,17.2c0.2-14.9,6.8-24.2,8.5-25.9s2-8.4,2-8.4s0.9,1.3,1.2-1.9c0.3-3.2-0.7-5.4,1.3-12
		s18-12.1,18-12.1s3.7-0.1,5.2,0.1c1.5,0.2,1.5,0.5,3,0.3c1.5-0.2,3.4-1.4,5-2.8c1.6-1.5,2.2,0.3,2.7,1.4
		C136.3,152.7,135.5,153.7,135.6,155.5z M169.9,162.5c1.9-1.8,1.2-1.7,5.7-1s0.9,0.9,1.2,3.6c0.3,2.8,0.5,2.1,2.7,3.3s1.4,0.5,4.7,0
		s0-2.2-1-4.3s-0.5-2.4,2.4-5.3c2.9-2.9,2.2,1,1.7,3.4s-1.6,3.1-1.6,5.1s0.9,1.2,2.7,2.4c1.9,1.2,0.5,2.1,0.9,5.1
		c0.3,3.1,0,2.4,0.5,4.4s-1.7,4.8-3.7,3.4c-2.1-1.4,0.2-6,0-8.8s-1.5-0.7-2.3,0.3s-0.2,1.2,0.2,3.2c0.3,2.1-2.7,2.4-2.7,2.4
		s-1.1-1.6-2.3-4.5s0-2.7-0.5-4.6c-0.5-1.9-1.7-1-4.1-1.7c-2.4-0.7-0.8,0.7-1.8,2.4s-2.9,3.9-4.1,2.9c-1.2-1,1.9-2.7,2.3-7
		C171,163,168,164.2,169.9,162.5z M169,184.9c0.8-8,2.8-8.5,3,0.2c0.2,8.8-8.7,33.6-8.7,33.6s4.9-2.4,8.4-6.9
		c3.5-4.6,4.5-10.7,4.5-6.7c0,3.9-2.9,9.3-3.3,10.7c-0.3,1.4,2.1,0.1,3,0.1s3.4,0.2,5.7-0.3c2.2-0.5,2.2-0.5,3.6-0.3
		c1.4,0.2,2.9,2.9,4,2.6c1.1-0.3-0.5-8.5-0.7-12.3s-0.4-4.2-0.1-6.8c0.3-2.6,2.1-2.9,3.6-4.2c1.6-1.2-1-2.9-2-4.4s1.1-1.3,3.4-1.3
		c2.2,0,1.2-2.6,0.7-3.6s-1.6-5-1.6-7.3c0-2.4-0.9-8-1.6-10c-0.7-2.1-0.6-6.5-0.6-7.7c0-2.1,1.7-0.8,2.8,2.6c1,3.4,1,9.4,1,11.1
		c0,1.7,1.4,8.3,1.5,9.7c0.2,1.4,0,4.9,0.2,6.8c0.2,1.9,0.7,2,0.5,3.6c-0.2,1.5-1.1,3.2-1.1,6.3s0,3.5,0.3,5.9s0.2,5.7,0,7.3
		c-0.2,1.5-1.3,6-1.3,8.6s0.3,6.6,0.3,8.7s-0.3,3.5-0.7,5.1c-0.3,1.5-1.5,2.3-2.7,2.3s-2.2-1.2-2.8-2.3s-1.7-3.6-2.4-4.6
		s-3.5-3.7-4-5.3c-0.5-1.5-3.6-3.2-3.6-3.2s-1.9-1.1-3.3-1.1c-1.4,0-1-0.1-2.2,0.5c-1.2,0.7-2-0.5-3-1.9c-0.4-0.5-0.4-0.7-0.4-0.8
		c-0.1,0-0.1-0.1-0.2-0.1c-1-0.5-2.2,0.3-3.9,1.8s-3.7,3.5-5.6,5.7c-1.9,2.2-6.2,5.9-8.9,8.6c-2.7,2.7-5.9,9.1-8.3,12.4
		c-2.4,3.3-8.9,18.6-9.5,21.1c-0.5,2.5-1.2,4-3.4,10.6s-1.7,0.3-2.5,0.5s-0.7,0.2-5.2,1.7s-0.3,0.2-4.2,1.2c-3.9,1,2.5-2.7,6-5.1
		s5.1-9.1,8.3-14.7s7.7-19.8,13.5-27.9c5.9-8.1,10.3-11,13.9-16.5C163.3,213.4,168.2,193,169,184.9z M112.3,265.9
		c1.2,0.7,1.7,1,1.7,3.4s-2.2,2,0.2,4.9c2.3,2.9,5.3,3.4,3.5,4.5c-1.7,1-2.2-0.3-4.6-2.4s-2.6-1.6-5-2.8c-2.4-1.2-5.7-4.2-3.6-3.4
		c2.2,0.8,2.2,0.6,4,0.8c1.9,0.2,3,1.5,3-1.5C111.6,266.6,111.1,265.2,112.3,265.9z M87.2,223c0,2.5,0.5,6,1.2,9.3l-6.1-0.7
		c0,0-1.2-1.9-2.8-5.3c-1.6-3.4-3.1-5.4-3.3-7.4s0-6.1,0-6.1s-0.2,0.1-0.7-1.7c-0.5-1.9-1.6-2.5-2.3-3.7c-0.7-1.1-2.3,1.5,1.4-4.8
		c3.7-6.3,18.7-31.5,19.9-36.7c0.9-4.1,2-4,3.6-3.9c0,0.3,0,0.7,0,1c0,2.1,0.5,2.9,0.5,9.1c0,6.2-0.2,2.4-1.3,8.3
		c-1.1,5.9-2.5,5.4-4.1,9.1c-1.6,3.7-3.9,10.3-5.2,16.6C86.5,212.3,87.2,218.2,87.2,223z M68.5,241.9c-2.2-0.2,0.3-1,2-2.3
		s-0.5-1.7-2.5-3.1c-2-1.5,0.5-2,1.3-2.5s1.1-1.4,1.1-1.4s1,0.7,2.4,1.9s0.3,1,0.5,3.6s1.8,1.9,3.7,2.7c1.9,0.9,2.7,3.6,2.7,3.6
		s-2.2,1.3-2.9,0.7c-0.7-0.7-2.2-1.5-3.4-2.5C72.4,241.4,70.7,242.1,68.5,241.9z M76.8,246.7c1.2-0.1,4.9,0.4,4.9,0.4l16,68.8
		C97.6,315.9,75.6,246.8,76.8,246.7z M82.7,241.9c0,0,1.5-3.9,3.1-4.1c0.8-0.1,2.3-0.3,3.6-0.4c0.2,1,0.5,1.9,0.7,2.6
		c1.2,3.9,8.6,26.4,11,31.8s3.1,9.9,3.4,17.1s-1,6.7-1,11.1s2.3,3.2,2.6,6.6c0.3,3.4-1,3.1-0.3,7.8s2.4,1.4,3.4,5.4s0,9.5,0.3,15.3
		c0.3,5.7,3.8,18.8,3.8,26c0,4,0,10.8,0.1,16L82.7,241.9z M127.3,330.5c-2.2-0.9-1-2.2-1.6-5.1s-1.5-2.9-2.2-6.6
		c-0.6-3.7-2.4-0.1-2.7,2.2c-0.3,2.2,0.2,2.4,1,6.4c0.9,4-1.4,4.5-3.7,3.1c-2.2-1.4-0.9-6-2.1-11.1c-1.2-5-1.8-8.3-3-11
		s-1.3-4.8-2-7.2c-0.7-2.4-1.6-6.2-1.4-8.5c0.2-2.2,1.8,0.6,1.8,0.6s1.4,4,1.5,5.1c0.2,1.2,1.5,4.7,2.3,6.9c0.9,2.2,2.9,5,5,6.9
		s2.6,1,4.4,2c1.9,1,0.8,2.8,2,6.1c1.1,3.3,0.5,2.4,2.1,6.1C130.4,330.1,129.6,331.3,127.3,330.5z M132,291.6
		c-0.2,2.9-1.2,2.9-1.4,4.8s0.9,3-0.5,6.3s-1.7-1.5-3.5-3.5c-1.9-2-1.2-3.5-1.2-4.2s-0.7-1.2-1.7-2s-1.8-2-2.3-4.2s2.2-0.9,3.9-1
		c1.7-0.2,3.4-1.7,6-3.6s1-0.5,1,1.4C132.2,287.5,132.2,288.7,132,291.6z M149.6,342.1c-2.7-4.4-2.6-2.9-5-4.7
		c-2.3-1.8-1.8-3-1.7-6.4s2.2-5.5,3.9-9.7s2.1-10.1,4.1-9.9c1.8,0.2-0.7,7.7-0.5,11.9c0.1,4.2,0.3,4.1,0.9,10.2
		c0.5,6.1,0.3,4.2,1.6,9.9C154.2,348.9,152.3,346.5,149.6,342.1z M186.8,257c-2.4,0.3-1.9,1.2-2.9,3.4c-1,2.2-0.3,6.4-0.9,8.9
		c-0.5,2.6-0.6,7.2-0.3,11.2s0,3.2-1.8,7.7s-3.3,20.3-3,22.7c0.3,2.4,2.3,3.4,4.1,5.7c1.8,2.4,0.5,2.5,0.7,4.9s-1,4.4-2.2,5.8
		s-1.7-1.4-4.3-8.1s0.2-20.5,0.4-24.9s0.6-5.2,1.4-8.1c0.8-2.9,1.3-6,2-8.8c0.7-2.7,1-7.5,1-10.8s0-4.8-0.3-7.3
		c-0.3-2.4,0-3.9,1-7.4s1.9,0.5,3.6,1.2c1.7,0.7,2,0.9,3.6,1.8C190.5,255.9,189.2,256.7,186.8,257z M199,232.2
		c-2.7,19-5.3,16.4-6,16.7s-3.7-2.4-5.1-4c-1.4-1.7-4.9-3.1-6.1-4.3c-1.2-1.2-3.7,0.3-6.1,0.9c-2.4,0.5-2.7,1.5-5.7,4.8
		s-6.2,7.8-4.7,6.9c1.5-0.9,6.7-7.6,11.4-9.3c4.6-1.7,2.7,1.5,3.4,2.4s0.5,5.5-1.1,5.5s-1.3,2.5-1.6,3.3c-0.3,0.9-0.8,6.2-1.5,9.2
		c-0.7,2.9-2.3,13.6-2.3,17.7v12.8c0,4-2.5,17.7-0.7,22.2c1.8,4.4-2.7,3-3.9,4.7s-2,0.2-3.8-0.6c-1.8-0.8-4.2-1.7-4.9-2
		s-5.2-18.4-4.5-20.8c0.6-2.4,1.2-9-0.6-9.5c-1.7-0.5-1.9,2.7-2.6,4.3c-0.7,1.6-4.5,14-4.8,15.9s-3,10.1-5.3,14.4s-2,5.4-3.7,6.2
		c-1.7,0.9,0.5-4.1,0.5-7.9s4.2-29.6,5.7-33.2s12.3-15.4,13-16.9s2-4,3.8-7.3s9.6-10.7,11.8-12.7c2.1-2,4.8-2.5,5.1-4.2
		s-1.8-0.5-3.9,1c-2,1.5-2.4,1.8-9.1,8.1c-6.7,6.3-5.7,6.7-13.1,15.3c-7.5,8.7-3.2,5.2-4.9,8.8c-1.7,3.6-3.1,4.4-3.8,5.3
		s0-1.2,0.2-3.2s5.2-11.8,6.9-14.2c1.7-2.4,10.8-16.6,11.3-18.4c0.5-1.7-1.2-2-1.4-1.2c-0.2,0.9-0.8,1.2-2,3.2s-4.8,3.6-5.3,4.3
		c-0.5,0.7-1.2,2.6-2.5,5.1c-1.4,2.5-2.4,3.5-4.8,4.9c-2.4,1.4-1.5-1.2-1.5-2.4c0.1-1.2,2.7-3.5,2.7-4.3c0-0.9,0-2.3,1.4-5.1
		c1.4-2.7,2-2.3,2-5.2s-1.5-0.1-1.5,1.2s-3.5,2.6-4.7,3.6s-1.5,3.8-2.3,7.4s-1.5,6.1-2.5,12s-1.7,10.6-1.7,14.7s-2.8,20.3-2.9,29.5
		c-0.2,9.3,1.2,13.2,0.2,18.3c-1,5.1,0.4,2.5,2,4.9s-0.6,2.3-2.3,3s-3-1.2-2.9-4.2c0.2-3,0.5-8.1,0.9-12.4
		c0.3-4.3,0.7-28.1,1.7-33.7s1.5-19,3.3-24.6c1.8-5.7,3.6-13.5,5.4-16.2c1.7-2.7,4.8-6.3,5.3-9.8s4.2-7.2,9.5-11.3s6.7-7.9,6.7-7.9
		s2.1-0.3,2.9,0.2c0.9,0.5,1.6,0.8,3.6,1.2c2,0.5,1.9-1.8,6.6,0.5c4.7,2.4,5.5,9.2,5.5,9.2s-1.6-1.2-3.8-2.4s-3.9-0.8-6.6,0.6
		c-2.7,1.5-11.3,6.4-15.4,9.8c-4.1,3.4-4.4,3.3-3,4s12.5-7.7,18.8-10.4s13,1.9,15.4,4c2.3,2.2,4.2,0.1,6.4-2.3
		C197.8,236.1,201.7,213.2,199,232.2z M218.6,156.7c-0.2,0.7-2.4,2-2.4,2s-8.8,0-9.5,0s-0.8-1.4-0.8-1.4l14.6-28.9l0.5-0.9
		C221,127.5,218.8,156,218.6,156.7z M234.2,154.7c1,2.7,1.4,3.2,0.1,3.4c-1.4,0.2-9.8,0.5-10.9,0.5c-1.2,0-3-2-3-2l1.4-27.8
		C221.8,128.8,233.1,152,234.2,154.7z M244.4,105.4c-6.4-11.7-23.7-29.3-24.6-29.3c-0.9,0-2.2,0.4-3.7,1.5s-1.8,0-2.4-0.8
		c-0.6-0.8-1.6-0.3-3.1-0.3s-1.2,0.4-2.7,1.9s-0.7,0.8-2.3,0.8s-4,1.9-4.7,3s-3.6,4.1-3.9,5.3c-0.3,1.2-1.4,1.3-3.4,1.7
		c-2,0.4-0.5-0.7-0.5-2c0-1.4,0.5-3.1-0.2-3s-1.8,1.2-2.7,4.5s-0.9,0.1-3.7,1.6c-2.7,1.5-2.7,4.2-2.7,4.2s-1.1-0.1-3.1-0.7
		c-2-0.5-3.3,0.7-3.8,1.2s0.2,2.7,0.2,2.7l1.8,1.1c0,0,0.1,2-0.4,3.2s-3.3,4.7-7,8.5s-3.4,3.8-1.9,3.8s5.7-0.7,6.5-0.8
		c0.8-0.1,2.4-0.9,4.7-0.9s4.1-1,4.1-1s2.3-1.2,3.4-2.2c1.1-0.9,0.7-1.4,0.7-2c0-0.7,0.7-4.6,0.7-5.5c0-0.8-0.3-1.9-1.5-2.8
		c-1.2-1-1.3-0.9-2-1.6s0-1.9,0.1-2.9c0.1-1.1,1.4-1.7,2.4-2.6c1.1-0.8,2-0.8,3-0.7c1,0.1,1.1,0.8,1.5,1.8c0.4,0.9,1.3,1.9,2.3,1.9
		c0.9,0,1.1-2.3,1.8-5.3s1.9-2.5,3.1-3.7c1.2-1.2,5.6-4.5,6-5.2s2.6-1,5.2-1.4c2.6-0.4,1.8,0.6,2.9,3.2c1.1,2.6,7.1,13.9,7.1,14.7
		c0,0.8-0.1,1-2.4,0.5c-2.3-0.5-5.3-2.6-6.7-3.4c-1.3-0.8-1.6-0.7-3.8-0.7s-3.8,1.9-5.1,2.3c-1.4,0.4-3.2,0.8-4.1,2.1
		c-0.9,1.3-0.8,2.4-2.3,2s-0.1-3-1.1-2.7s-2.4,1.9-2.2,6.9s0.7,4.6,3.5,4c2.8-0.7,3.3,1.1,5.3,2.3c2.1,1.2,3.7,2.4,6.8,3.7
		c3.2,1.2,8.1,2.3,8.1,2.3s-2.5,0.4-4.4,0.5s-10.2-0.8-10.2-0.8s-4,0-5.2,0s-0.9,2.7-0.9,2.7s-0.4,5.7-0.3,6.6
		c0.1,0.9,0.6,14.1,0.6,16.3s-1.3,6.2-2,3.5c-0.6-2.7-0.5-5.7-0.5-7.9s0.1-8.1,0.1-12.6c0-4.5-1.9-1.5-2.2-0.8s-0.9,2.3-1.4,3.9
		c-0.4,1.6-1.1,8-0.6,8.9c0.4,1,0.3,4.3,0.8,7.3c0.6,2.9,0,3.1,0.8,5.9c0.8,2.8-0.1,2.3-1.2,2.6c-1.1,0.3-1.5-0.4-2.1-2
		s-0.5-3-0.5-6.6s0-3.6,0.6-7c0.6-3.5,0.4-4.9-0.2-9.5c-0.6-4.5,0.6-5.4,0.7-6.9c0.1-1.5-0.8-3.4-1.9-3.6c-1.1-0.3-1.2,0.4-2.1,1.3
		c-0.9,0.9-4.6,1.9-6.2,1.2c-1.6-0.7-5.1-0.1-7.6,0.1c-2.5,0.3-4.4,0.1-8.7,0.3c-4.3,0.1-1.5,2.4-0.3,2.4s1.6,0,4.9-0.3
		c3.3-0.3,0.7,0.4,0.7,0.4s-0.8,1.9-1.6,2.9s-2,2.6-2,4.4s0,2.3,1.6,3.7s1.6-1.9,1.8-3.5c0.1-1.6,0.8-2.3,1.5-3.5s3.7-3.5,4.7-5.2
		s2.1-0.8,2.1-0.8s-0.9,2.1-1.5,3.4s-0.7,3-2.2,4.1c-1.5,1.1-1.2,0.1-1.9,0.6s-0.5,0.7-1.4,2.6c-0.8,1.9-1.5,2.7-1.9,3.9
		s0.8,3.7,0.9,5.5c0.1,1.8,2.1,0.1,2.7-0.7c0.7-0.8,2.1-2.7,2.8-2.5s1.1,2.8,1,3.5c-0.1,0.6-2.2,2.8-3.7,3.1s-0.3,1.4-0.3,1.4
		s3.5,7.1,5.1,8.3s0.3,1.3,0.3,2s-0.3,1.5-0.8,1.7c-0.5,0.3-1.5,0.3-2.5,0.4c-1.1,0.1-1.5,0-1.5,0s-8.8,0.1-9.6,0.1s-0.8,0-2.6-0.4
		s-3.6-0.8-4.7-1.3c-1.1-0.5-1.5,0-3,0s-3.8,0.5-5.8,0.5c-1.9,0-1.5-0.7-2.1-1.3c-0.7-0.7-1.9-1.2-3.2-1.2c-1.4,0-1.2,0-2.2-0.4
		s-0.5-1.5-0.8-2.7s0.2-0.3-0.5-1s-1.8-0.5-2.7-1.1c-0.9-0.5-2.3-0.5-3.8-1.1c-1.5-0.5-1.8,0-3.4-0.3s-1.5-1.1-2.3-2.3
		s-0.5-1.3-1.5-2c-1.1-0.7-1.9-0.8-3.8-1.7s-0.6-1.2-2.7-2.7s-2-3.1-3.6-4.3s-0.4-2.9,0.5-3c0.8-0.1,0.9,1.4,3.7,3.8
		c2.8,2.4,0.7,0,1.4-0.1c0.7-0.1,0-4,0-4s2,2,3.5,4s1.8,2,3,3.3s2.7,3.5,3.2,4.5c0.5,1.1,3.6,1,3.6,0.4s-3.1-3.8-3.7-4.6
		c-0.7-0.8-2.9-4.6-3.9-6s-2.9-3.5-4.1-4.9c-1.2-1.3-2.6-3.9-3.5-4.8s-1.7-0.4-3.3-1.6c-1.6-1.2-0.5-1.5,1.5-2.2s2-1.9,1-3.4
		c-1.1-1.5-2.5-0.4-5-0.4s-3.2,0.9-3.8,1.6c-0.6,0.6-1.2,2.2-1.5,3.5c-0.3,1.4,0.1,2.9,0.4,3.4c0.3,0.6,0.1,1.9,1.5,4.4
		c1.3,2.5,1.9,3.5,3.2,5.9c1.3,2.3,1.8,3.1,2.3,4.4c0.6,1.2,3.9,5,3,4.9c-1-0.1-7.9-4.4-8.8-4.9c-1-0.4-1.3-1.2-1.3-1.2
		s0-2.7,0.3-3.8s-0.9-1.7-1.6-1.9c-0.7-0.1-0.7-3-0.7-3s0.5-2.8,0.1-3.9s-0.6-1.6-0.4-2.6c0.3-0.9,0.4-2.6,0.3-3.8
		c-0.1-1.2,0.5-1.8,1.1-2.4c0.5-0.7-0.3-1.6-0.4-2.1s-1.2-2.1-0.8-3c0.4-1,1.2-1.2,1.3-3.2c0.1-2-0.7-3-1.1-3.7
		c-0.4-0.8-1.2-1.2-1.5-2.1s0.9-3.1,0.9-3.8s-0.7-1.9-1.2-2.7c-0.5-0.8-2.6-0.4-3.4-1.6s-2-2-1.2-2.6c0.8-0.5,3.3-2.5,3.3-2.5
		s5.5-4.8,6.2-5.3c0.7-0.4,11.1-6.8,11.1-6.8s1.5,0.7,2.2,0.7s1.1-1.1,1.1-1.1l-1-3.2c0,0-1.5-1.6-1.9-2.2c-0.4-0.5-1.9-1.5-2.6-2.8
		s1.2-1.3,1.6-2.3c0.4-0.9,2.1-2,2.1-2s0.8-0.9,2-2.2c1.2-1.2,1.1-0.1,2.2,0.5c1.1,0.7,2.5,0.4,3.1,1s0.2,0.3,0.2,3
		c0,2.8,0.8,2.3,3.8,5.7c3,3.4,2.6-0.2,1-1.5c-1.6-1.2-1.5-5-1.4-8.1c0.2-3.1,2.9,1.5,3.9,1.9c1,0.4,1.2,0.7,4.1,1.6
		c2.9,1,1.5,0.5,4.4,0.4c3-0.1,1.7-0.8,3.9-2.1c2.1-1.3,0.8,0,1.5,2.8s0.6,5.2,2.4,3.6c1.8-1.6,1.8-2.9,2-4.1c0.3-1.2,0.5-2,1.8-3.4
		c1.2-1.4,3.4-0.6,6.4-0.5s1.5,0.5,2.7,2.8c1.2,2.3,1.8,1.9-2.7,2.9c-4.6,1-2,0-3.4,1.8s0.3,1.3,3.1,1.3c2.9,0,2.7-0.1,0.7,0.7
		c-2.1,0.8-1.7,1.1-2,1.9s0.5,1.9,1.5,2.1c0.9,0.3,4-1.6,4-1.6s1.1-1.3,2.3-1.7c1.2-0.4,1.7,0.3,4,1.8s7.8,3.3,10.4,2.9
		c2.6-0.4,13.2-8,25.9-7.5s19.9,11.5,28.7,20.4C245.3,99.2,250.8,117.1,244.4,105.4z M186.2,85.9c-1.6,0-1-0.5-2.4,0.9
		s-2.4,2.7-1.4,3.1s1.7,0.5,2.2-0.8C185.3,87.7,187.8,85.9,186.2,85.9z M135.4,141c-0.4-1.9-0.2-1.5-1.7-4.4s-1.8-2.3-3.4-5.6
		c-1.6-3.3-1.3-3.3-3.2-6c-1.9-2.7-0.3-4.1-4.2-4.1c-3.9,0-7.7,0.1-4.1,1.3c3.7,1.2,5,2.5,5.9,3.8c0.9,1.4,2.5,3.7,3.6,4.7
		c1.1,0.9,2,4.1,2.6,5c0.5,0.9,0.2,0.1,1.8,2.6S135.8,142.9,135.4,141z M137.2,99.4c1.8,1.4,1.5,1.8,2.6,2.1c1.1,0.3,0.7,1,2-0.4
		c1.4-1.4,2.4-1.5,3.5-2.8s3-3.1,0.2-1.7c-2.9,1.4-2.6,2.1-4.3,2.2c-1.8,0.1-2.2-1-3.6-1.2C136.1,97.5,135.3,98,137.2,99.4z
		 M123.1,82.6c2-0.9,3.1-0.4,3.6-1.5c0.5-1,2.4-3.2,0.1-2.8c-2.3,0.5-1.8,0-3.2,0.9c-1.4,0.8-3.4,1.8-5.3,1.7
		c-1.9-0.1-2.3-1.5-2.1-0.1c0.3,1.4,0.1,2,2.6,2.5C121.4,83.6,121.1,83.5,123.1,82.6z M149.3,130.4c0.3-1.5,0.4-1.6-0.5-4
		c-0.9-2.4-0.7,2.8-0.7,4.6S149,131.9,149.3,130.4z M138.4,138.7c-2.7-1.9-2.3-1-2.3-3.4s0.5-4.7,0.5-6c0-1.4-4.5-8.3-4.2-5.4
		c0.5,5.3,2.9,3.8,2.9,7s-1.3,3.7,0.1,5.8c1.5,2,0.3,0.9,2.3,4s3.4,5.8,4.2,4.6s1-0.8-0.4-2.8C140,140.3,141.2,140.6,138.4,138.7z
		 M149.7,145.1c1.1-1.6,1.2-1.1,1.2-4.1s0.2-5.6-1.5-5.9c-1.7-0.3-2.1,0.2-1.5,3c0.5,2.8,1.8,3.4,0.4,3.6c-1.4,0.3-1.4,0.6-2.3-1.2
		c-1-1.8,0.3-1.7-1.2-3.6c-1.5-1.9-2.5-3-2.5-3s-0.2-0.5,0.3,2.6s0.4,3.3,1.6,5.3c1.2,2-1.4,2.9,1.3,3.5
		C148.2,146,148.6,146.7,149.7,145.1z M135.4,145c1.1,0.7,2.8,1,2.8,1l-2.9-3.1C135.3,142.9,134.3,144.3,135.4,145z"/>
</g>
</svg>
